<svg width="31" height="33" viewBox="0 0 31 33" fill="none" xmlns="http://www.w3.org/2000/svg">
<path d="M11.2944 5.73712L12.2892 3.16909C12.457 2.7343 12.7522 2.36031 13.1361 2.0961C13.52 1.8319 13.9748 1.68981 14.4408 1.68843H16.3379C16.804 1.68981 17.2587 1.8319 17.6426 2.0961C18.0266 2.36031 18.3217 2.7343 18.4895 3.16909L19.4843 5.73712L22.8621 7.68049L25.5921 7.26405C26.0466 7.20235 26.5093 7.27718 26.9212 7.47903C27.3332 7.68088 27.6758 8.00064 27.9056 8.39768L28.831 10.0172C29.0681 10.4205 29.1774 10.8863 29.1444 11.353C29.1113 11.8198 28.9375 12.2655 28.6459 12.6315L26.957 14.783V18.6698L28.6922 20.8214C28.9838 21.1873 29.1576 21.633 29.1906 22.0998C29.2237 22.5665 29.1144 23.0323 28.8773 23.4357L27.9519 25.0551C27.7221 25.4522 27.3794 25.7719 26.9675 25.9738C26.5556 26.1756 26.0929 26.2505 25.6383 26.1888L22.9084 25.7723L19.5306 27.7157L18.5358 30.2837C18.368 30.7185 18.0728 31.0925 17.6889 31.3567C17.305 31.6209 16.8502 31.763 16.3842 31.7644H14.4408C13.9748 31.763 13.52 31.6209 13.1361 31.3567C12.7522 31.0925 12.457 30.7185 12.2892 30.2837L11.2944 27.7157L7.91665 25.7723L5.18668 26.1888C4.73211 26.2505 4.26946 26.1756 3.85751 25.9738C3.44557 25.7719 3.10293 25.4522 2.87314 25.0551L1.94773 23.4357C1.7106 23.0323 1.60134 22.5665 1.63438 22.0998C1.66743 21.633 1.84122 21.1873 2.13281 20.8214L3.82169 18.6698V14.783L2.08654 12.6315C1.79495 12.2655 1.62116 11.8198 1.58811 11.353C1.55507 10.8863 1.66433 10.4205 1.90146 10.0172L2.82687 8.39768C3.05666 8.00064 3.3993 7.68088 3.81124 7.47903C4.22318 7.27718 4.68584 7.20235 5.14041 7.26405L7.87038 7.68049L11.2944 5.73712ZM10.7623 16.7264C10.7623 17.6416 11.0337 18.5362 11.5421 19.2971C12.0505 20.058 12.7732 20.6511 13.6187 21.0013C14.4642 21.3515 15.3945 21.4431 16.2921 21.2646C17.1896 21.086 18.0141 20.6453 18.6612 19.9982C19.3083 19.3511 19.749 18.5267 19.9275 17.6291C20.1061 16.7315 20.0144 15.8012 19.6642 14.9557C19.314 14.1102 18.7209 13.3876 17.96 12.8791C17.1991 12.3707 16.3045 12.0993 15.3894 12.0993C14.1622 12.0993 12.9853 12.5868 12.1175 13.4546C11.2498 14.3223 10.7623 15.4992 10.7623 16.7264V16.7264Z" fill="#F5F5F5" stroke="#F5F5F5" stroke-width="2.31353" stroke-linecap="round" stroke-linejoin="round"/>
</svg>
