<svg width="157" height="277" viewBox="0 0 157 277" fill="none" xmlns="http://www.w3.org/2000/svg">
<path d="M93.9148 12.4353C93.9148 5.56749 88.3473 0 81.4795 0C74.6116 0 69.0441 5.56749 69.0441 12.4353L69.0441 264.251C69.0441 271.119 74.6116 276.686 81.4794 276.686C88.3473 276.686 93.9148 271.119 93.9148 264.251L93.9148 12.4353Z" fill="url(#paint0_linear_102_231)"/>
<path d="M25.4356 32.7367C35.3703 26.0583 46.8686 22.8901 58.1632 21.6852V53.0341C51.9735 54.0207 46.7781 55.8494 42.7795 58.5374C36.7755 62.5734 31.0921 70.1354 31.0921 87.2333C31.0921 97.2214 39.2078 106.281 53.8691 113.988C55.2995 114.74 56.7365 115.448 58.1632 116.112V149.649C52.602 147.672 46.0435 144.996 39.404 141.506C22.9767 132.871 0.0037197 115.92 0.0037197 87.2333C0.0037197 61.9748 9.16803 43.6721 25.4356 32.7367Z" fill="url(#paint1_linear_102_231)"/>
<path d="M58.1632 217.791C51.5525 216.295 45.3022 214.55 39.831 212.851C34.2514 211.119 29.6104 209.474 26.39 208.273C24.7821 207.674 23.5349 207.187 22.7092 206.858C22.2965 206.694 21.9896 206.57 21.7961 206.49L21.5922 206.407L21.5645 206.395L15.7962 220.137C21.5644 206.395 21.5571 206.392 21.5571 206.392C13.6431 203.075 4.53719 206.798 1.21552 214.712C-2.10716 222.627 1.61622 231.738 9.53195 235.06L15.5482 220.728C9.53195 235.06 9.54122 235.064 9.54122 235.064L9.55337 235.069L9.58637 235.083L9.68677 235.125C9.76887 235.159 9.88116 235.205 10.0227 235.263C10.3057 235.379 10.7058 235.541 11.2153 235.744C12.2338 236.149 13.6917 236.717 15.5266 237.402C19.1918 238.769 24.3873 240.608 30.6115 242.541C38.3469 244.943 47.8767 247.554 58.1632 249.558V217.791Z" fill="url(#paint2_linear_102_231)"/>
<path d="M116.312 135.211C112.385 133.327 108.487 131.737 104.796 130.401V164.197C118.025 170.965 125.912 179.666 125.912 191.059C125.912 207.037 120.284 213.511 114.153 216.964C111.514 218.451 108.376 219.595 104.796 220.401V251.967C113.366 250.766 121.805 248.336 129.412 244.051C146.889 234.205 157 216.34 157 191.059C157 160.513 133.791 143.593 116.312 135.211Z" fill="url(#paint3_linear_102_231)"/>
<path d="M119.943 28.7134C115.462 27.4645 110.338 26.1702 104.796 25.0098V56.8835C107.169 57.462 109.446 58.0611 111.597 58.6606C116.805 60.1119 121.135 61.5253 124.135 62.5651C125.632 63.084 126.791 63.5073 127.553 63.7923C127.934 63.9348 128.216 64.0424 128.391 64.1099L128.587 64.1862L128.6 64.1914C136.574 67.3535 145.604 63.4573 148.774 55.484C151.946 47.5065 148.049 38.4685 140.072 35.297L134.33 49.7416C140.072 35.297 140.062 35.293 140.062 35.293L140.049 35.288L140.015 35.2746L139.915 35.2352C139.834 35.2034 139.724 35.1606 139.587 35.1076C139.312 35.0016 138.927 34.8544 138.438 34.6717C137.46 34.3063 136.067 33.7979 134.316 33.1911C130.82 31.9793 125.871 30.3654 119.943 28.7134Z" fill="url(#paint4_linear_102_231)"/>
<defs>
<linearGradient id="paint0_linear_102_231" x1="22.9468" y1="25.304" x2="145.106" y2="259.477" gradientUnits="userSpaceOnUse">
<stop stop-color="#F44730"/>
<stop offset="1" stop-color="#F4A154"/>
</linearGradient>
<linearGradient id="paint1_linear_102_231" x1="22.9468" y1="25.304" x2="145.106" y2="259.477" gradientUnits="userSpaceOnUse">
<stop stop-color="#F44730"/>
<stop offset="1" stop-color="#F4A154"/>
</linearGradient>
<linearGradient id="paint2_linear_102_231" x1="22.9468" y1="25.304" x2="145.106" y2="259.477" gradientUnits="userSpaceOnUse">
<stop stop-color="#F44730"/>
<stop offset="1" stop-color="#F4A154"/>
</linearGradient>
<linearGradient id="paint3_linear_102_231" x1="22.9468" y1="25.304" x2="145.106" y2="259.477" gradientUnits="userSpaceOnUse">
<stop stop-color="#F44730"/>
<stop offset="1" stop-color="#F4A154"/>
</linearGradient>
<linearGradient id="paint4_linear_102_231" x1="22.9468" y1="25.304" x2="145.106" y2="259.477" gradientUnits="userSpaceOnUse">
<stop stop-color="#F44730"/>
<stop offset="1" stop-color="#F4A154"/>
</linearGradient>
</defs>
</svg>
