<svg width="100" height="100" viewBox="0 0 100 100" fill="none" xmlns="http://www.w3.org/2000/svg">
<path d="M55.209 9C55.209 6.79086 53.4181 5 51.209 5C48.9998 5 47.209 6.79086 47.209 9L47.209 90C47.209 92.2091 48.9998 94 51.209 94C53.4181 94 55.209 92.2091 55.209 90L55.209 9Z" fill="#D9D9D9"/>
<path d="M33.1817 15.5302C36.3773 13.382 40.0759 12.3629 43.709 11.9753V22.0591C41.718 22.3765 40.0468 22.9647 38.7606 23.8293C36.8293 25.1276 35.0012 27.56 35.0012 33.0598C35.0012 36.2726 37.6117 39.1869 42.3277 41.6659C42.7879 41.9078 43.2501 42.1354 43.709 42.349V53.1366C41.9201 52.5007 39.8105 51.6401 37.6748 50.5175C32.3908 47.7398 25.0012 42.2874 25.0012 33.0598C25.0012 24.935 27.949 19.0477 33.1817 15.5302Z" fill="#D9D9D9"/>
<path d="M43.709 75.0554C41.5826 74.5742 39.5721 74.0131 37.8122 73.4666C36.0174 72.9092 34.5246 72.3803 33.4887 71.9939C32.9715 71.8011 32.5703 71.6445 32.3047 71.5388C32.172 71.486 32.0733 71.446 32.011 71.4205L31.9454 71.3935L31.9365 71.3898L30.0811 75.8101C31.9365 71.3898 31.9341 71.3888 31.9341 71.3888C29.3885 70.3218 26.4595 71.5195 25.391 74.0649C24.3222 76.6111 25.5199 79.5416 28.0661 80.6104L30.0013 76.0001C28.0661 80.6104 28.0691 80.6117 28.0691 80.6117L28.073 80.6133L28.0836 80.6177L28.1159 80.6312C28.1423 80.6421 28.1784 80.657 28.2239 80.6756C28.315 80.7129 28.4437 80.7651 28.6075 80.8303C28.9352 80.9606 29.4041 81.1434 29.9944 81.3635C31.1733 81.8032 32.8445 82.395 34.8466 83.0167C37.3348 83.7894 40.4002 84.6292 43.709 85.2738V75.0554Z" fill="#D9D9D9"/>
<path d="M62.4134 48.4924C61.1501 47.8865 59.8964 47.375 58.709 46.9452V57.8161C62.9643 59.9931 65.5012 62.7922 65.5012 66.4566C65.5012 71.5963 63.6911 73.6786 61.719 74.7896C60.8701 75.2678 59.8605 75.6358 58.709 75.895V86.0488C61.4657 85.6623 64.1802 84.8806 66.6271 83.5022C72.2487 80.3353 75.5012 74.5889 75.5012 66.4567C75.5013 56.6313 68.0357 51.1887 62.4134 48.4924Z" fill="#D9D9D9"/>
<path d="M63.5813 14.2361C62.1398 13.8343 60.4917 13.418 58.709 13.0447V23.2973C59.4725 23.4834 60.2048 23.6762 60.8967 23.869C62.5719 24.3358 63.9648 24.7905 64.9298 25.1249C65.4114 25.2918 65.784 25.428 66.0293 25.5197C66.1519 25.5655 66.2424 25.6001 66.2986 25.6218L66.3618 25.6464L66.366 25.648C68.9311 26.6652 71.8357 25.4119 72.8553 22.8472C73.8754 20.2811 72.6222 17.3739 70.0561 16.3538L68.209 21.0001C70.0561 16.3538 70.0528 16.3525 70.0528 16.3525L70.0487 16.3509L70.0378 16.3466L70.0056 16.3339C69.9795 16.3237 69.9442 16.3099 69.9 16.2928C69.8117 16.2587 69.6877 16.2114 69.5304 16.1526C69.216 16.0351 68.7678 15.8715 68.2047 15.6764C67.0801 15.2866 65.488 14.7674 63.5813 14.2361Z" fill="#D9D9D9"/>
</svg>
