<svg width="49" height="48" viewBox="0 0 49 48" fill="none" xmlns="http://www.w3.org/2000/svg">
<path d="M24.9719 0.0878906C11.7172 0.0878906 0.971924 10.8332 0.971924 24.0879C0.971924 35.3429 8.72104 44.7874 19.1745 47.3813V31.4223H14.2257V24.0879H19.1745V20.9276C19.1745 12.7589 22.8714 8.97269 30.8913 8.97269C32.4119 8.97269 35.0356 9.27125 36.1089 9.56885V16.2169C35.5425 16.1573 34.5585 16.1276 33.3364 16.1276C29.4014 16.1276 27.8807 17.6185 27.8807 21.494V24.0879H35.7201L34.3732 31.4223H27.8807V47.9122C39.7646 46.477 48.9729 36.3586 48.9729 24.0879C48.9719 10.8332 38.2266 0.0878906 24.9719 0.0878906Z" fill="white"/>
</svg>
