<svg width="48" height="48" viewBox="0 0 48 48" fill="none" xmlns="http://www.w3.org/2000/svg">
<path fill-rule="evenodd" clip-rule="evenodd" d="M24 11.6765C17.1938 11.6765 11.6719 17.1984 11.6719 24.0046C11.6719 30.8109 17.1938 36.3328 24 36.3328C30.8062 36.3328 36.3281 30.8109 36.3281 24.0046C36.3281 17.1984 30.8062 11.6765 24 11.6765ZM24 32.0015C19.5844 32.0015 16.0031 28.4203 16.0031 24.0046C16.0031 19.589 19.5844 16.0078 24 16.0078C28.4156 16.0078 31.9969 19.589 31.9969 24.0046C31.9969 28.4203 28.4156 32.0015 24 32.0015Z" fill="white"/>
<path d="M36.8156 14.067C38.4 14.067 39.6937 12.7827 39.6937 11.1889C39.6937 9.60454 38.4 8.31079 36.8156 8.31079C35.2313 8.31079 33.9375 9.59517 33.9375 11.1889C33.9375 12.7733 35.2219 14.067 36.8156 14.067Z" fill="white"/>
<path fill-rule="evenodd" clip-rule="evenodd" d="M24 0.00463867C17.4844 0.00463867 16.6688 0.0327637 14.1094 0.145264C11.5594 0.257764 9.80625 0.670264 8.2875 1.26089C6.70312 1.87964 5.3625 2.69526 4.03125 4.03589C2.69063 5.36714 1.875 6.70776 1.25625 8.28276C0.665625 9.81089 0.253125 11.5546 0.140625 14.1046C0.028125 16.6734 0 17.489 0 24.0046C0 30.5203 0.028125 31.3359 0.140625 33.8953C0.253125 36.4453 0.665625 38.1984 1.25625 39.7171C1.875 41.3015 2.69063 42.6421 4.03125 43.9734C5.3625 45.3046 6.70313 46.1296 8.27813 46.739C9.80625 47.3296 11.55 47.7421 14.1 47.8546C16.6594 47.9671 17.475 47.9953 23.9906 47.9953C30.5063 47.9953 31.3219 47.9671 33.8813 47.8546C36.4313 47.7421 38.1844 47.3296 39.7031 46.739C41.2781 46.1296 42.6188 45.3046 43.95 43.9734C45.2812 42.6421 46.1063 41.3015 46.7156 39.7265C47.3063 38.1984 47.7188 36.4546 47.8313 33.9046C47.9438 31.3453 47.9719 30.5296 47.9719 24.014C47.9719 17.4984 47.9438 16.6828 47.8313 14.1234C47.7188 11.5734 47.3063 9.82026 46.7156 8.30151C46.125 6.70776 45.3094 5.36714 43.9688 4.03589C42.6375 2.70464 41.2969 1.87964 39.7219 1.27026C38.1938 0.679639 36.45 0.267139 33.9 0.154639C31.3313 0.0327637 30.5156 0.00463867 24 0.00463867ZM24 4.32651C30.4125 4.32651 31.1719 4.35464 33.6938 4.46714C36.0375 4.57026 37.3031 4.96401 38.1469 5.29214C39.2625 5.72339 40.0688 6.24839 40.9031 7.08276C41.7469 7.92651 42.2625 8.72339 42.6938 9.83901C43.0219 10.6828 43.4156 11.9578 43.5188 14.2921C43.6313 16.8234 43.6594 17.5828 43.6594 23.9859C43.6594 30.3984 43.6313 31.1578 43.5188 33.6796C43.4156 36.0234 43.0219 37.289 42.6938 38.1328C42.2625 39.2484 41.7375 40.0546 40.9031 40.889C40.0594 41.7328 39.2625 42.2484 38.1469 42.6796C37.3031 43.0078 36.0281 43.4015 33.6938 43.5046C31.1625 43.6171 30.4031 43.6453 24 43.6453C17.5875 43.6453 16.8281 43.6171 14.3063 43.5046C11.9625 43.4015 10.6969 43.0078 9.85313 42.6796C8.7375 42.2484 7.93125 41.7234 7.09688 40.889C6.25313 40.0453 5.7375 39.2484 5.30625 38.1328C4.97813 37.289 4.58438 36.014 4.48125 33.6796C4.36875 31.1484 4.34063 30.389 4.34063 23.9859C4.34063 17.5734 4.36875 16.814 4.48125 14.2921C4.58438 11.9484 4.97813 10.6828 5.30625 9.83901C5.7375 8.72339 6.2625 7.91714 7.09688 7.08276C7.94063 6.23901 8.7375 5.72339 9.85313 5.29214C10.6969 4.96401 11.9719 4.57026 14.3063 4.46714C16.8281 4.35464 17.5875 4.32651 24 4.32651Z" fill="white"/>
</svg>
