<svg width="23" height="23" viewBox="0 0 23 23" fill="none" xmlns="http://www.w3.org/2000/svg">
<g clip-path="url(#clip0_1001_3528)">
<path fill-rule="evenodd" clip-rule="evenodd" d="M20.8336 19.9147C19.3968 21.7272 17.3057 22.605 14.7232 22.605H14.6465V22.9043H10.1348V0.959542H10.457V0.560547H14.6311C16.717 0.560547 18.5146 1.13322 19.9303 2.33874L19.9349 2.34269L19.9395 2.34668C21.439 3.65387 22.1814 5.33452 22.1814 7.3069C22.1814 7.56336 22.1699 7.81971 22.147 8.07588L22.1452 8.09554L22.1426 8.11512C21.9642 9.46224 21.4478 10.6188 20.5738 11.5374C21.6902 12.6752 22.2544 14.1125 22.2734 15.791L22.2734 15.7963V15.8015C22.2734 17.3378 21.7978 18.7222 20.8336 19.9147ZM17.3005 9.08533C16.9248 9.40208 16.2691 9.64675 15.1484 9.65577H15.0762C14.8389 9.65577 14.6465 9.46339 14.6465 9.22608V4.77795C14.6465 4.53469 14.8487 4.33772 15.0904 4.36564C15.6116 4.42586 16.0378 4.55742 16.3863 4.74164C16.8671 4.99577 17.2634 5.38306 17.5675 5.94984C17.8232 6.42632 17.9444 6.90113 17.9459 7.38412C17.9272 8.27629 17.6584 8.78355 17.3005 9.08533ZM16.653 18.1694C16.2374 18.4183 15.7319 18.6067 15.1212 18.7189C14.8694 18.7651 14.6465 18.5643 14.6465 18.3083V13.8251C14.6465 13.5878 14.8389 13.3954 15.0762 13.3954H15.1529C16.1587 13.3954 16.8067 13.585 17.2128 13.8502C17.5895 14.0962 17.8669 14.4776 17.991 15.1071C18.0218 15.2982 18.0379 15.5008 18.0379 15.7157C18.0379 16.8211 17.5858 17.5981 16.653 18.1694Z" fill="url(#paint0_linear_1001_3528)"/>
<path fill-rule="evenodd" clip-rule="evenodd" d="M20.8336 19.9147C19.3968 21.7272 17.3057 22.605 14.7232 22.605H14.6465V22.9043H10.1348V0.959542H10.457V0.560547H14.6311C16.717 0.560547 18.5146 1.13322 19.9303 2.33874L19.9349 2.34269L19.9395 2.34668C21.439 3.65387 22.1814 5.33452 22.1814 7.3069C22.1814 7.56336 22.1699 7.81971 22.147 8.07588L22.1452 8.09554L22.1426 8.11512C21.9642 9.46224 21.4478 10.6188 20.5738 11.5374C21.6902 12.6752 22.2544 14.1125 22.2734 15.791L22.2734 15.7963V15.8015C22.2734 17.3378 21.7978 18.7222 20.8336 19.9147ZM17.3005 9.08533C16.9248 9.40208 16.2691 9.64675 15.1484 9.65577H15.0762C14.8389 9.65577 14.6465 9.46339 14.6465 9.22608V4.77795C14.6465 4.53469 14.8487 4.33772 15.0904 4.36564C15.6116 4.42586 16.0378 4.55742 16.3863 4.74164C16.8671 4.99577 17.2634 5.38306 17.5675 5.94984C17.8232 6.42632 17.9444 6.90113 17.9459 7.38412C17.9272 8.27629 17.6584 8.78355 17.3005 9.08533ZM16.653 18.1694C16.2374 18.4183 15.7319 18.6067 15.1212 18.7189C14.8694 18.7651 14.6465 18.5643 14.6465 18.3083V13.8251C14.6465 13.5878 14.8389 13.3954 15.0762 13.3954H15.1529C16.1587 13.3954 16.8067 13.585 17.2128 13.8502C17.5895 14.0962 17.8669 14.4776 17.991 15.1071C18.0218 15.2982 18.0379 15.5008 18.0379 15.7157C18.0379 16.8211 17.5858 17.5981 16.653 18.1694Z" fill="url(#paint1_linear_1001_3528)" fill-opacity="0.5"/>
<path d="M10.1348 0.882812L6.07058 6.87563C5.83294 7.22603 5.28527 7.05783 5.28527 6.63446V0.882812H0.896484V22.608H5.28527V17.3034C5.28527 16.8926 5.80632 16.716 6.05608 17.0421L10.1348 22.3672H16.0542L14.4084 21.5052C14.2764 21.4361 14.1602 21.3402 14.0672 21.2238L7.01389 12.388C6.89328 12.2369 6.88843 12.0238 7.00204 11.8674L14.0581 2.15216C14.1514 2.02367 14.272 1.91747 14.4113 1.84121L16.1616 0.882812H10.1348Z" fill="url(#paint2_linear_1001_3528)"/>
</g>
<defs>
<linearGradient id="paint0_linear_1001_3528" x1="8.63086" y1="11.7324" x2="22.2688" y2="11.9851" gradientUnits="userSpaceOnUse">
<stop stop-color="#F44730"/>
<stop offset="1" stop-color="#F4A154"/>
</linearGradient>
<linearGradient id="paint1_linear_1001_3528" x1="9.06055" y1="11.7324" x2="16.148" y2="11.8638" gradientUnits="userSpaceOnUse">
<stop stop-color="#232323"/>
<stop offset="1" stop-color="#F4A154" stop-opacity="0"/>
</linearGradient>
<linearGradient id="paint2_linear_1001_3528" x1="-2.05762" y1="11.7324" x2="16.1485" y2="11.9159" gradientUnits="userSpaceOnUse">
<stop stop-color="#F44730"/>
<stop offset="1" stop-color="#F4A154"/>
</linearGradient>
<clipPath id="clip0_1001_3528">
<rect width="21.4844" height="21.4844" fill="white" transform="translate(0.53125 0.625)"/>
</clipPath>
</defs>
</svg>
