<svg width="49" height="48" viewBox="0 0 49 48" fill="none" xmlns="http://www.w3.org/2000/svg">
<path d="M45.4198 0H4.51665C2.55728 0 0.9729 1.54688 0.9729 3.45938V44.5312C0.9729 46.4437 2.55728 48 4.51665 48H45.4198C47.3792 48 48.9729 46.4438 48.9729 44.5406V3.45938C48.9729 1.54688 47.3792 0 45.4198 0ZM15.2135 40.9031H8.08853V17.9906H15.2135V40.9031ZM11.651 14.8688C9.36353 14.8688 7.51665 13.0219 7.51665 10.7437C7.51665 8.46562 9.36353 6.61875 11.651 6.61875C13.9292 6.61875 15.776 8.46562 15.776 10.7437C15.776 13.0125 13.9292 14.8688 11.651 14.8688ZM41.876 40.9031H34.7604V29.7656C34.7604 27.1125 34.7135 23.6906 31.0573 23.6906C27.3541 23.6906 26.7916 26.5875 26.7916 29.5781V40.9031H19.6854V17.9906H26.5104V21.1219H26.6041C27.551 19.3219 29.876 17.4188 33.3354 17.4188C40.5448 17.4188 41.876 22.1625 41.876 28.3313V40.9031Z" fill="white"/>
</svg>
