<svg width="200" height="200" viewBox="0 0 200 200" fill="none" xmlns="http://www.w3.org/2000/svg">
<g clip-path="url(#clip0_96_78)">
<path fill-rule="evenodd" clip-rule="evenodd" d="M186.596 177.169C173.221 194.043 153.755 202.214 129.714 202.214H129V205H87V0.714286H90V-3H128.857C148.275 -3 165.009 2.33111 178.187 13.5534L178.23 13.5901L178.273 13.6273C192.232 25.7961 199.143 41.4413 199.143 59.8024C199.143 62.1898 199.036 64.5762 198.823 66.9609L198.806 67.144L198.782 67.3262C197.121 79.8667 192.314 90.6332 184.178 99.1846C194.571 109.777 199.823 123.157 199.999 138.782L200 138.831V138.879C200 153.181 195.572 166.069 186.596 177.169ZM153.706 76.358C150.209 79.3066 144.105 81.5843 133.673 81.6682H133C130.791 81.6682 129 79.8774 129 77.6682V36.2602C129 33.9957 130.883 32.162 133.132 32.4219C137.984 32.9825 141.951 34.2072 145.196 35.9222C149.672 38.2879 153.361 41.8932 156.192 47.1694C158.572 51.605 159.701 56.0251 159.714 60.5213C159.54 68.8266 157.038 73.5487 153.706 76.358ZM147.679 160.922C143.81 163.24 139.104 164.994 133.419 166.037C131.075 166.468 129 164.598 129 162.216V120.481C129 118.272 130.791 116.481 133 116.481H133.714C143.077 116.481 149.11 118.246 152.89 120.715C156.396 123.005 158.98 126.555 160.134 132.415C160.421 134.194 160.571 136.08 160.571 138.081C160.571 148.371 156.362 155.604 147.679 160.922Z" fill="url(#paint0_linear_96_78)"/>
<path fill-rule="evenodd" clip-rule="evenodd" d="M186.596 177.169C173.221 194.043 153.755 202.214 129.714 202.214H129V205H87V0.714286H90V-3H128.857C148.275 -3 165.009 2.33111 178.187 13.5534L178.23 13.5901L178.273 13.6273C192.232 25.7961 199.143 41.4413 199.143 59.8024C199.143 62.1898 199.036 64.5762 198.823 66.9609L198.806 67.144L198.782 67.3262C197.121 79.8667 192.314 90.6332 184.178 99.1846C194.571 109.777 199.823 123.157 199.999 138.782L200 138.831V138.879C200 153.181 195.572 166.069 186.596 177.169ZM153.706 76.358C150.209 79.3066 144.105 81.5843 133.673 81.6682H133C130.791 81.6682 129 79.8774 129 77.6682V36.2602C129 33.9957 130.883 32.162 133.132 32.4219C137.984 32.9825 141.951 34.2072 145.196 35.9222C149.672 38.2879 153.361 41.8932 156.192 47.1694C158.572 51.605 159.701 56.0251 159.714 60.5213C159.54 68.8266 157.038 73.5487 153.706 76.358ZM147.679 160.922C143.81 163.24 139.104 164.994 133.419 166.037C131.075 166.468 129 164.598 129 162.216V120.481C129 118.272 130.791 116.481 133 116.481H133.714C143.077 116.481 149.11 118.246 152.89 120.715C156.396 123.005 158.98 126.555 160.134 132.415C160.421 134.194 160.571 136.08 160.571 138.081C160.571 148.371 156.362 155.604 147.679 160.922Z" fill="url(#paint1_linear_96_78)" fill-opacity="0.5"/>
<path d="M87 0L49.1661 55.7877C46.9539 59.0496 41.8556 57.4839 41.8556 53.5426V0H1V202.242H41.8556V152.86C41.8556 149.037 46.7061 147.393 49.0311 150.428L87 200H142.104L126.783 191.976C125.555 191.332 124.473 190.44 123.608 189.356L57.9475 107.102C56.8247 105.696 56.7795 103.713 57.8372 102.256L123.522 11.8165C124.391 10.6204 125.514 9.63176 126.811 8.92178L143.104 0H87Z" fill="url(#paint2_linear_96_78)"/>
</g>
<defs>
<linearGradient id="paint0_linear_96_78" x1="73" y1="101" x2="199.956" y2="103.353" gradientUnits="userSpaceOnUse">
<stop stop-color="#F44730"/>
<stop offset="1" stop-color="#F4A154"/>
</linearGradient>
<linearGradient id="paint1_linear_96_78" x1="77" y1="101" x2="142.977" y2="102.223" gradientUnits="userSpaceOnUse">
<stop stop-color="#232323"/>
<stop offset="1" stop-color="#F4A154" stop-opacity="0"/>
</linearGradient>
<linearGradient id="paint2_linear_96_78" x1="-26.5" y1="101" x2="142.983" y2="102.708" gradientUnits="userSpaceOnUse">
<stop stop-color="#F44730"/>
<stop offset="1" stop-color="#F4A154"/>
</linearGradient>
<clipPath id="clip0_96_78">
<rect width="200" height="200" fill="white"/>
</clipPath>
</defs>
</svg>
