<svg width="768" height="264" viewBox="0 0 768 264" fill="none" xmlns="http://www.w3.org/2000/svg">
<path d="M2.52646 10.6419L0 19.6315V0.929688C2.44616 3.39087 3.5323 7.06301 2.52646 10.6419Z" fill="url(#paint0_linear_691_3140)"/>
<path d="M755.421 210.989C760.147 211.688 764.38 212.336 768 212.902V264H0V203.354C4.45112 203.205 9.04245 203.127 13.8 203.137C21.7196 203.153 29.1657 203.403 36.265 203.821C38.9543 194.646 43.9152 187.014 50.8766 181.013C58.78 174.2 68.4019 170.262 78.0516 168.044L81.3123 195.176C76.058 196.673 71.7518 198.796 68.5707 201.539C67.0863 202.818 65.6641 204.389 64.4622 206.392C71.9897 207.288 79.2813 208.29 86.5453 209.288L86.571 209.291C88.6019 209.57 90.6308 209.849 92.662 210.125L86.5065 158.907C85.7921 152.963 90.0314 147.566 95.9753 146.851C101.919 146.137 107.317 150.376 108.031 156.32L114.829 212.882C126.582 214.144 138.919 215.056 152.63 215.208C160.304 212.234 168.472 211.116 176.414 211.082L176.045 214.685C179.321 214.49 182.521 214.245 185.654 213.957L186.671 204.027C187.281 198.072 192.603 193.738 198.558 194.348C204.514 194.957 208.847 200.28 208.238 206.235L207.737 211.13C220.057 209.136 231.568 206.635 243.012 204.148C254.917 201.561 266.748 198.99 279.339 197.024C283.332 186.612 289.968 178.611 298.832 173.088C307.689 167.571 317.801 165.158 327.677 164.449L326.73 191.759C323.768 192.127 321.057 192.722 318.626 193.549C321.49 193.5 324.413 193.494 327.4 193.537C330.386 193.579 333.3 193.671 336.15 193.808L337.436 156.72C337.643 150.737 342.661 146.055 348.644 146.262C354.628 146.469 359.31 151.488 359.102 157.471L357.775 195.755C362.843 196.424 367.735 197.214 372.51 198.086C370.833 197.561 369.07 197.035 367.239 196.521L368.201 168.754C369.104 168.976 369.993 169.201 370.868 169.429C365.43 156.303 365.268 143.604 369.871 131.863C373.679 122.148 380.349 114.173 387.848 107.707L403.398 130.178C399.451 133.956 396.633 137.843 395.101 141.754C392.799 147.625 392.476 155.864 400.957 168.12C405.912 175.279 416.223 177.748 430.555 176C431.954 175.829 433.335 175.623 434.687 175.392L451.322 199.431C446.355 200.772 440.327 202.108 433.837 202.9C425.033 203.973 413.58 204.232 402.684 200.858C401.487 202.033 400.092 202.964 398.579 203.621C399.499 203.832 400.418 204.044 401.337 204.257L401.517 204.298C423.35 209.336 445.271 214.394 473.724 215.135L391.059 95.6798C387.652 90.757 388.881 84.0046 393.804 80.5979C398.727 77.1912 405.479 78.4202 408.886 83.343L499.762 214.663C509.246 214.068 518.136 213.052 526.731 211.815C526.682 207.462 525.031 202.164 520.424 195.507C514.774 187.341 504.804 185.016 491.964 186.727L475.2 162.502C478.509 161.629 482.092 160.836 485.841 160.238C502.528 157.576 527.557 158.192 542.708 180.087C549.106 189.331 552.66 198.497 553.591 207.347L553.921 207.288C574.312 203.653 594.858 199.991 619.969 199.265C620.474 195.36 621.538 191.371 623.297 187.34C632.101 167.159 645.803 155.73 662.612 152.663C672.877 150.79 683.168 152.267 692.612 155.241L681.685 180.288C676.396 178.919 671.607 178.569 667.476 179.323C661.272 180.455 654.095 184.515 648.136 198.176C647.934 198.637 647.756 199.105 647.6 199.58C658.839 200.076 670.703 200.954 682.54 202.049L704.53 151.644C706.924 146.157 713.313 143.649 718.8 146.043C724.287 148.437 726.795 154.826 724.401 160.313L705.172 204.388C712.594 205.229 719.83 206.116 726.706 207.005C725.414 205.89 723.978 204.68 722.416 203.409C720.906 202.18 719.296 200.908 717.601 199.618L728.711 174.152C732.735 177.011 736.377 179.831 739.522 182.391C743.682 185.777 747.074 188.792 749.445 190.978C750.633 192.073 751.569 192.965 752.222 193.598C752.549 193.914 752.806 194.166 752.988 194.347C753.08 194.437 753.152 194.509 753.206 194.563L753.295 194.652L753.303 194.66C753.303 194.66 753.31 194.667 743.714 204.18L753.31 194.667C757.711 199.107 758.41 205.826 755.421 210.989Z" fill="url(#paint1_linear_691_3140)"/>
<path d="M0 194.427L1.23639 192.979C4.01901 189.722 4.53452 185.291 2.93423 181.61C7.01682 176.313 10.2379 169.734 12.4495 161.866C17.797 142.839 9.52216 127.39 0 116.761V194.427Z" fill="url(#paint2_linear_691_3140)"/>
<path d="M422.923 86.959C427.471 85.0417 431.785 83.4279 435.617 82.1002C440.685 80.3439 445.034 79.0456 448.141 78.18C449.697 77.7466 450.948 77.4198 451.83 77.1969C452.271 77.0853 452.62 76.9996 452.87 76.9394L453.059 76.8938L453.168 76.868L453.259 76.8466L453.29 76.8394L453.302 76.8367C453.302 76.8367 453.311 76.8346 456.27 89.6461L453.311 76.8345C460.603 75.1507 467.878 79.6964 469.562 86.9878C471.245 94.2753 466.705 101.547 459.421 103.236L459.409 103.239L459.23 103.282C459.072 103.32 458.816 103.383 458.473 103.469C457.785 103.643 456.744 103.915 455.414 104.285C452.748 105.028 448.943 106.163 444.49 107.706C442.651 108.343 440.721 109.043 438.733 109.806L422.923 86.959Z" fill="url(#paint3_linear_691_3140)"/>
<path d="M118.756 166.071C123.673 166.499 128.242 167.086 132.25 167.701C137.553 168.514 142.004 169.396 145.156 170.081C146.734 170.424 147.993 170.719 148.877 170.934C149.319 171.041 149.668 171.128 149.917 171.192L150.106 171.24L150.214 171.268L150.305 171.292L150.347 171.303C150.347 171.303 150.356 171.305 146.889 184.404L150.356 171.305C157.59 173.22 161.903 180.637 159.987 187.871C158.074 195.101 150.664 199.413 143.433 197.505L143.422 197.502L143.244 197.457C143.085 197.416 142.83 197.352 142.486 197.269C141.796 197.102 140.75 196.856 139.4 196.562C136.695 195.974 132.801 195.202 128.143 194.487C126.219 194.192 124.186 193.91 122.071 193.657L118.756 166.071Z" fill="url(#paint4_linear_691_3140)"/>
<path d="M19.0489 28.8124C15.8679 26.8806 12.202 24.7748 8.18481 22.6814L1.2858 47.2294C2.98868 48.1887 4.61246 49.1429 6.13925 50.0702C9.83609 52.3152 12.8652 54.341 14.9505 55.7911C15.9913 56.5149 16.7918 57.0916 17.3174 57.4762C17.5801 57.6684 17.7736 57.8122 17.8936 57.902L18.0284 58.0033L18.0373 58.0101C23.4944 62.1714 31.2922 61.1253 35.4592 55.6707C39.6285 50.2131 38.5841 42.4091 33.1266 38.2398L25.5775 48.1216C33.1266 38.2398 33.1197 38.2346 33.1197 38.2346L33.1109 38.2279L33.0191 38.1582C32.9635 38.1162 32.8883 38.0595 32.794 37.9889C32.6054 37.8478 32.3404 37.6511 32.0034 37.4045C31.3297 36.9115 30.3665 36.2183 29.1496 35.3721C26.7193 33.6821 23.2567 31.3678 19.0489 28.8124Z" fill="url(#paint5_linear_691_3140)"/>
<defs>
<linearGradient id="paint0_linear_691_3140" x1="-461.382" y1="105.283" x2="-0.258398" y2="827.326" gradientUnits="userSpaceOnUse">
<stop stop-color="#F44730"/>
<stop offset="1" stop-color="#F4A154"/>
</linearGradient>
<linearGradient id="paint1_linear_691_3140" x1="-461.382" y1="105.283" x2="-0.258398" y2="827.326" gradientUnits="userSpaceOnUse">
<stop stop-color="#F44730"/>
<stop offset="1" stop-color="#F4A154"/>
</linearGradient>
<linearGradient id="paint2_linear_691_3140" x1="-461.382" y1="105.283" x2="-0.258398" y2="827.326" gradientUnits="userSpaceOnUse">
<stop stop-color="#F44730"/>
<stop offset="1" stop-color="#F4A154"/>
</linearGradient>
<linearGradient id="paint3_linear_691_3140" x1="-461.382" y1="105.283" x2="-0.258398" y2="827.326" gradientUnits="userSpaceOnUse">
<stop stop-color="#F44730"/>
<stop offset="1" stop-color="#F4A154"/>
</linearGradient>
<linearGradient id="paint4_linear_691_3140" x1="-461.382" y1="105.283" x2="-0.258398" y2="827.326" gradientUnits="userSpaceOnUse">
<stop stop-color="#F44730"/>
<stop offset="1" stop-color="#F4A154"/>
</linearGradient>
<linearGradient id="paint5_linear_691_3140" x1="-461.382" y1="105.283" x2="-0.258398" y2="827.326" gradientUnits="userSpaceOnUse">
<stop stop-color="#F44730"/>
<stop offset="1" stop-color="#F4A154"/>
</linearGradient>
</defs>
</svg>
