<svg width="1280" height="276" viewBox="0 0 1280 276" fill="none" xmlns="http://www.w3.org/2000/svg">
<path fill-rule="evenodd" clip-rule="evenodd" d="M467.423 13.6692C468.972 8.15945 465.761 2.43762 460.251 0.889147C454.741 -0.659329 449.019 2.55192 447.471 8.06167L400.017 176.91C396.734 176.979 393.478 177.378 390.26 178.113L392.441 170.355C387.474 167.665 382.853 164.856 378.847 162.259C374.762 159.611 371.409 157.246 369.096 155.556C367.942 154.712 367.051 154.041 366.462 153.591C366.168 153.366 365.95 153.197 365.813 153.09L365.668 152.977L365.649 152.961L357.923 162.685C365.648 152.961 365.643 152.957 365.643 152.957C360.042 148.511 351.897 149.446 347.448 155.045C342.998 160.646 343.931 168.795 349.532 173.245L357.533 163.175C349.532 173.245 349.539 173.25 349.539 173.25L349.547 173.257L349.571 173.276L349.642 173.332C349.7 173.378 349.78 173.44 349.88 173.518L349.992 173.605C350.103 173.692 350.234 173.793 350.383 173.908L350.481 173.983L350.58 174.059L350.729 174.173C351.454 174.728 352.496 175.512 353.814 176.475C356.446 178.398 360.199 181.045 364.757 183.999C366.478 185.115 368.327 186.283 370.287 187.479C365.748 190.802 361.349 194.924 357.129 199.864C350.048 208.155 346.958 217.4 346.218 226.495C344.008 226.596 341.769 226.678 339.496 226.741C340.593 225.696 341.539 224.456 342.279 223.037C345.881 216.125 343.198 207.6 336.285 203.998L329.774 216.492C336.285 203.998 336.276 203.993 336.276 203.993L336.236 203.972L336.149 203.928L336.028 203.866C335.98 203.841 335.925 203.813 335.864 203.782C335.626 203.661 335.291 203.492 334.867 203.282C334.017 202.861 332.806 202.273 331.281 201.563C328.235 200.145 323.913 198.23 318.711 196.189C314.779 194.647 310.27 193.004 305.372 191.443L302.424 220.234C304.515 220.977 306.516 221.728 308.403 222.469C312.442 224.053 315.865 225.547 318.41 226.713C318.219 226.707 318.027 226.701 317.835 226.695L317.5 226.685C308.461 226.394 300.026 225.744 292.021 224.84L296.706 179.079C297.341 172.875 292.827 167.331 286.623 166.696C280.419 166.061 274.876 170.575 274.24 176.779L269.655 221.568C261.214 220.074 253.117 218.381 245.099 216.653C245.483 216.418 245.868 216.198 246.252 215.993C250.113 213.935 254.975 212.764 260.657 212.445L263.556 184.128C253.243 184.172 242.563 185.97 232.972 191.084C224.81 195.435 218.197 201.762 213.399 210.038C206.913 208.826 200.262 207.722 193.318 206.806C193.558 204.871 193.399 202.855 192.781 200.873C190.46 193.431 182.546 189.28 175.104 191.601L179.297 205.044C175.104 191.601 175.095 191.604 175.095 191.604L175.083 191.608L175.051 191.618L174.958 191.647C174.883 191.671 174.781 191.704 174.654 191.745C174.399 191.827 174.043 191.943 173.594 192.094C172.695 192.395 171.421 192.832 169.839 193.404C166.68 194.547 162.265 196.237 157.138 198.459C153.422 200.069 149.264 201.988 144.896 204.214C140.607 204.299 136.214 204.453 131.752 204.664L129.47 201.846C125.545 197 118.435 196.253 113.589 200.178C111.641 201.755 110.356 203.847 109.769 206.099C107.454 206.287 105.135 206.486 102.817 206.694L77.4985 152.712C74.8505 147.066 68.1269 144.635 62.4809 147.283C56.835 149.931 54.4048 156.655 57.0528 162.301L79.0212 209.14C69.6436 210.215 60.554 211.379 52.0737 212.542C52.4283 211.758 52.8202 211.022 53.2368 210.327C55.4876 206.576 59.0535 203.069 63.7615 199.872L51.6743 174.1C42.8538 179.446 34.6228 186.484 29.0307 195.805C25.1396 202.29 22.8159 209.375 22.1774 216.971C8.0524 219.217 -0.833374 220.851 -0.833374 220.851V275.5H1279.17V226.685C1279.17 226.685 1268.38 224.833 1251.69 222.364C1254.8 216.986 1254.07 209.987 1249.49 205.362L1239.49 215.271C1249.49 205.362 1249.48 205.355 1249.48 205.355L1249.47 205.346L1249.45 205.323L1249.38 205.254C1249.33 205.198 1249.25 205.122 1249.15 205.028C1248.96 204.84 1248.7 204.578 1248.36 204.248C1247.68 203.589 1246.7 202.66 1245.46 201.52C1242.99 199.242 1239.46 196.101 1235.13 192.574C1231.85 189.908 1228.06 186.97 1223.87 183.992L1212.29 210.519C1214.06 211.863 1215.74 213.188 1217.31 214.468C1218.93 215.792 1220.43 217.052 1221.78 218.214C1214.61 217.288 1207.08 216.364 1199.35 215.488L1219.38 169.576C1221.87 163.86 1219.26 157.205 1213.54 154.712C1207.83 152.218 1201.17 154.83 1198.68 160.546L1175.77 213.051C1163.44 211.911 1151.08 210.996 1139.37 210.48C1139.54 209.985 1139.72 209.498 1139.93 209.017C1146.14 194.787 1153.62 190.557 1160.08 189.378C1164.38 188.593 1169.37 188.958 1174.88 190.384L1186.26 164.294C1176.43 161.195 1165.71 159.657 1155.01 161.608C1137.5 164.803 1123.23 176.708 1114.06 197.729C1112.23 201.929 1111.12 206.084 1110.59 210.152C1084.44 210.908 1063.03 214.723 1041.79 218.509L1041.45 218.57C1040.48 209.352 1036.78 199.804 1030.11 190.174C1014.33 167.367 988.258 166.726 970.876 169.498C966.97 170.121 963.238 170.948 959.792 171.857L977.254 197.091C990.629 195.309 1001.01 197.731 1006.9 206.237C1011.7 213.171 1013.42 218.69 1013.47 223.225C1004.52 224.513 995.256 225.571 985.377 226.191L890.714 89.3995C887.166 84.2716 880.132 82.9913 875.004 86.5399C869.876 90.0886 868.596 97.1223 872.144 102.25L958.254 226.683C928.616 225.911 905.781 220.642 883.038 215.394L882.923 215.368C881.942 215.141 880.96 214.915 879.978 214.689C881.554 214.005 883.008 213.035 884.254 211.811C895.604 215.325 907.535 215.056 916.705 213.938C923.466 213.113 929.745 211.722 934.919 210.324L917.59 185.284C916.182 185.525 914.743 185.739 913.287 185.917C898.357 187.738 887.617 185.167 882.456 177.709C873.621 164.942 873.957 156.36 876.355 150.244C877.951 146.171 880.886 142.121 884.998 138.186L868.799 114.779C860.989 121.515 854.041 129.821 850.073 139.941C845.279 152.172 845.448 165.399 851.112 179.073C850.201 178.835 849.275 178.6 848.335 178.369L847.332 207.293C849.239 207.829 851.076 208.377 852.823 208.923C847.849 208.015 842.753 207.192 837.474 206.496L838.856 166.616C839.072 160.384 834.195 155.156 827.963 154.94C821.731 154.724 816.503 159.601 816.287 165.834L814.948 204.467C811.979 204.325 808.944 204.229 805.833 204.185C802.722 204.14 799.677 204.146 796.693 204.197C799.226 203.336 802.05 202.716 805.136 202.333L806.122 173.885C795.835 174.623 785.301 177.136 776.075 182.884C766.841 188.637 759.929 196.972 755.769 207.817C742.654 209.866 730.33 212.544 717.929 215.238C706.009 217.829 694.018 220.434 681.184 222.511L681.706 217.412C682.341 211.208 677.827 205.664 671.623 205.029C665.419 204.394 659.876 208.908 659.24 215.112L658.181 225.455C654.917 225.756 651.584 226.011 648.172 226.214L648.556 222.461C640.283 222.496 631.775 223.66 623.781 226.759C609.499 226.601 596.648 225.65 584.405 224.336L577.324 165.417C576.58 159.226 570.957 154.81 564.766 155.554C558.574 156.298 554.158 161.921 554.902 168.112L561.315 221.464C559.191 221.175 557.07 220.884 554.947 220.592L554.943 220.592C547.376 219.552 539.781 218.509 531.94 217.575C533.192 215.489 534.673 213.853 536.219 212.52C539.533 209.663 544.019 207.452 549.492 205.892L546.095 177.63C536.044 179.94 526.021 184.042 517.788 191.139C510.537 197.39 505.369 205.341 502.568 214.897C495.173 214.462 487.416 214.202 479.167 214.185C471.216 214.169 463.71 214.386 456.539 214.773L466.079 203.604C468.978 200.211 469.515 195.595 467.848 191.76C472.101 186.243 475.456 179.391 477.76 171.194C484.647 146.689 469.842 127.882 457.71 117.216C454.984 114.819 452.215 112.665 449.555 110.761L441.935 137.873C451.022 146.286 455.388 155.045 452.819 164.184C449.217 177.003 443.242 180.928 437.545 182.316C435.093 182.914 432.317 183.124 429.263 182.963L428.824 184.526C426.148 183.064 423.369 181.756 420.494 180.653L467.423 13.6692ZM424.361 217.675L431.841 208.918C428.6 208.953 425.356 208.723 422.146 208.288L423.499 203.472L417.453 210.551C415.88 209.589 414.327 208.749 412.798 208.037L410.647 215.689C410.21 217.245 409.44 218.618 408.436 219.751C413.678 219.033 418.964 218.329 424.361 217.675ZM395.055 221.598C391.33 219.199 389.433 214.57 390.695 210.081L391.42 207.5C387.515 209.437 383.234 212.765 378.594 218.198C377.125 219.918 376.039 221.895 375.322 224.111C382.009 223.351 388.543 222.489 395.055 221.598Z" fill="url(#paint0_linear_547_3350)"/>
<path d="M905.336 93.1661C910.074 91.1689 914.568 89.4879 918.559 88.1049C923.839 86.2754 928.369 84.923 931.605 84.0214C933.226 83.5699 934.529 83.2295 935.448 82.9972C935.907 82.881 936.271 82.7918 936.531 82.729C936.661 82.6976 936.765 82.6729 936.842 82.6547L936.937 82.6323L936.969 82.6249L936.981 82.622C936.981 82.622 936.991 82.6199 940.073 95.9652L936.991 82.6198C944.586 80.8658 952.165 85.601 953.919 93.1962C955.672 100.787 950.943 108.362 943.355 110.122L943.343 110.124L943.157 110.169C942.991 110.209 942.725 110.274 942.367 110.365C941.651 110.546 940.567 110.828 939.181 111.214C936.404 111.988 932.44 113.17 927.802 114.778C925.886 115.441 923.876 116.17 921.805 116.965L905.336 93.1661Z" fill="url(#paint1_linear_547_3350)"/>
<path d="M588.496 175.575C593.618 176.02 598.377 176.632 602.553 177.272C608.076 178.119 612.713 179.038 615.996 179.752C617.64 180.109 618.951 180.416 619.872 180.64C620.332 180.752 620.696 180.843 620.955 180.908C621.084 180.941 621.188 180.968 621.265 180.988L621.359 181.013L621.403 181.024C621.403 181.024 621.413 181.027 617.801 194.671L621.413 181.027C628.948 183.021 633.44 190.747 631.445 198.283C629.452 205.814 621.733 210.305 614.201 208.319L614.189 208.315L614.004 208.268C613.839 208.226 613.573 208.159 613.214 208.072C612.496 207.898 611.406 207.642 610 207.336C607.183 206.724 603.126 205.919 598.273 205.175C596.269 204.867 594.152 204.574 591.949 204.309L588.496 175.575Z" fill="url(#paint2_linear_547_3350)"/>
<path d="M91.2918 158.853C96.2954 157.67 101.007 156.759 105.172 156.058C110.682 155.13 115.373 154.549 118.715 154.197C120.388 154.021 121.729 153.901 122.674 153.825C123.146 153.786 123.52 153.759 123.786 153.74C123.92 153.731 124.026 153.724 124.105 153.718L124.203 153.712L124.248 153.709C124.248 153.709 124.258 153.709 125.107 167.798L124.258 153.709C132.039 153.24 138.727 159.168 139.196 166.949C139.664 174.726 133.743 181.41 125.968 181.885L125.956 181.886L125.765 181.899C125.676 181.905 125.56 181.914 125.417 181.925C125.285 181.935 125.13 181.947 124.954 181.961C124.217 182.021 123.102 182.119 121.671 182.27C118.804 182.572 114.699 183.08 109.858 183.895C107.859 184.231 105.756 184.616 103.581 185.056L91.2918 158.853Z" fill="url(#paint3_linear_547_3350)"/>
<path d="M436.656 13.0291C427.323 11.4491 417.384 11.3984 407.908 14.5162C392.392 19.6213 380.913 32.2385 375.218 52.5021C368.75 75.5164 383.359 94.2949 394.591 104.926C399.13 109.223 403.789 112.848 407.804 115.688L415.366 88.7832C414.371 87.9287 413.378 87.037 412.4 86.1112C402.375 76.6228 397.907 67.5246 400.159 59.5115C404.014 45.7947 410.279 41.0095 416.005 39.1253C419.819 37.8704 424.4 37.5748 429.588 38.1788L436.656 13.0291Z" fill="url(#paint4_linear_547_3350)"/>
<path d="M484.634 32.5968C481.321 30.5845 477.502 28.3909 473.317 26.2103L466.131 51.7811C467.905 52.7804 469.596 53.7744 471.187 54.7403C475.038 57.0788 478.193 59.1891 480.365 60.6996C481.449 61.4535 482.283 62.0543 482.831 62.4549C482.903 62.5078 482.97 62.5573 483.033 62.6031C483.126 62.6717 483.208 62.7323 483.278 62.7843C483.337 62.8286 483.388 62.8668 483.431 62.8984L483.571 63.004L483.58 63.011C489.265 67.3458 497.388 66.256 501.728 60.5741C506.071 54.8892 504.983 46.7599 499.298 42.417L491.435 52.7105C499.298 42.417 499.291 42.4115 499.291 42.4115L499.282 42.4045L499.187 42.332C499.129 42.2882 499.05 42.2291 498.952 42.1557C498.756 42.0087 498.48 41.8037 498.129 41.5468C497.427 41.0334 496.423 40.3112 495.156 39.4297C492.624 37.6693 489.017 35.2586 484.634 32.5968Z" fill="url(#paint5_linear_547_3350)"/>
<defs>
<linearGradient id="paint0_linear_547_3350" x1="-15.8144" y1="112.253" x2="464.522" y2="864.381" gradientUnits="userSpaceOnUse">
<stop stop-color="#F44730"/>
<stop offset="1" stop-color="#F4A154"/>
</linearGradient>
<linearGradient id="paint1_linear_547_3350" x1="-15.8144" y1="112.253" x2="464.522" y2="864.381" gradientUnits="userSpaceOnUse">
<stop stop-color="#F44730"/>
<stop offset="1" stop-color="#F4A154"/>
</linearGradient>
<linearGradient id="paint2_linear_547_3350" x1="-15.8144" y1="112.253" x2="464.522" y2="864.381" gradientUnits="userSpaceOnUse">
<stop stop-color="#F44730"/>
<stop offset="1" stop-color="#F4A154"/>
</linearGradient>
<linearGradient id="paint3_linear_547_3350" x1="-15.8144" y1="112.253" x2="464.522" y2="864.381" gradientUnits="userSpaceOnUse">
<stop stop-color="#F44730"/>
<stop offset="1" stop-color="#F4A154"/>
</linearGradient>
<linearGradient id="paint4_linear_547_3350" x1="-15.8144" y1="112.253" x2="464.522" y2="864.381" gradientUnits="userSpaceOnUse">
<stop stop-color="#F44730"/>
<stop offset="1" stop-color="#F4A154"/>
</linearGradient>
<linearGradient id="paint5_linear_547_3350" x1="-15.8144" y1="112.253" x2="464.522" y2="864.381" gradientUnits="userSpaceOnUse">
<stop stop-color="#F44730"/>
<stop offset="1" stop-color="#F4A154"/>
</linearGradient>
</defs>
</svg>
