<svg width="50" height="50" viewBox="0 0 50 50" fill="none" xmlns="http://www.w3.org/2000/svg">
<path fill-rule="evenodd" clip-rule="evenodd" d="M38.5711 44.1876C34.7379 46.9037 30.0554 48.5 25 48.5C12.0213 48.5 1.5 37.9787 1.5 25C1.5 12.0213 12.0213 1.5 25 1.5C37.9787 1.5 48.5 12.0213 48.5 25C48.5 29.6238 47.1646 33.9357 44.8585 37.571H43.5711V36.7998C45.7422 33.39 47 29.3419 47 25C47 12.8497 37.1503 3 25 3C12.8497 3 3 12.8497 3 25C3 37.1503 12.8497 47 25 47C29.9709 47 34.5568 45.3514 38.2406 42.571H38.5711V44.1876ZM17.7347 32.8491C17.6518 32.4451 17.2578 32.1836 16.8529 32.2646C16.4467 32.3458 16.1833 32.7409 16.2646 33.1471L17 33C16.2646 33.1471 16.2647 33.1476 16.2648 33.1481L16.265 33.1493L16.2655 33.1519L16.2669 33.1585L16.271 33.1773C16.2743 33.1922 16.2788 33.2118 16.2848 33.2358C16.2966 33.2838 16.314 33.3495 16.3383 33.4304C16.3868 33.592 16.463 33.8152 16.5775 34.0795C16.8061 34.6072 17.1905 35.305 17.8175 36.0017C19.0912 37.4169 21.2972 38.75 25 38.75C28.7028 38.75 30.9088 37.4169 32.1825 36.0017C32.8095 35.305 33.1939 34.6072 33.4225 34.0795C33.537 33.8152 33.6132 33.592 33.6617 33.4304C33.686 33.3495 33.7034 33.2838 33.7152 33.2358C33.7212 33.2118 33.7257 33.1922 33.729 33.1773L33.7331 33.1585L33.7345 33.1519L33.735 33.1493L33.7352 33.1481C33.7353 33.1476 33.7354 33.1471 33 33L33.7354 33.1471C33.8167 32.7409 33.5533 32.3458 33.1471 32.2646C32.7419 32.1835 32.3477 32.4455 32.2652 32.8499L32.2651 32.8503L32.2649 32.8512L32.2648 32.8514C32.2639 32.8554 32.262 32.8639 32.2589 32.8765C32.2527 32.9018 32.2417 32.9435 32.225 32.9993C32.1914 33.1111 32.1348 33.2785 32.0462 33.483C31.8686 33.8928 31.5655 34.445 31.0675 34.9983C30.0912 36.0831 28.2972 37.25 25 37.25C21.7028 37.25 19.9088 36.0831 18.9325 34.9983C18.4345 34.445 18.1314 33.8928 17.9538 33.483C17.8652 33.2785 17.8086 33.1111 17.775 32.9993C17.7583 32.9435 17.7473 32.9018 17.7411 32.8765L17.7379 32.8631L17.7352 32.8514L17.7347 32.8492L17.7347 32.8491ZM33 25C35.2091 25 37 23.2091 37 21C37 18.7909 35.2091 17 33 17C30.7909 17 29 18.7909 29 21C29 23.2091 30.7909 25 33 25ZM21 21C21 23.2091 19.2091 25 17 25C14.7909 25 13 23.2091 13 21C13 18.7909 14.7909 17 17 17C19.2091 17 21 18.7909 21 21ZM34 38.571C33.1716 38.571 32.5 39.2426 32.5 40.071C32.5 40.8995 33.1716 41.571 34 41.571H39.5711V47.1421C39.5711 47.9705 40.2426 48.6421 41.0711 48.6421C41.8995 48.6421 42.5711 47.9705 42.5711 47.1421V41.571H48.1421C48.9706 41.571 49.6421 40.8995 49.6421 40.071C49.6421 39.2426 48.9706 38.571 48.1421 38.571H42.5711V33C42.5711 32.1715 41.8995 31.5 41.0711 31.5C40.2426 31.5 39.5711 32.1716 39.5711 33V38.571H34Z" fill="#D9D9D9"/>
</svg>
