<svg width="50" height="50" viewBox="0 0 50 50" fill="none" xmlns="http://www.w3.org/2000/svg">
<path d="M26.8636 2.20821L32.7482 14.5966C32.8821 14.9111 33.0926 15.1834 33.3588 15.3866C33.6251 15.5897 33.9378 15.7165 34.2656 15.7544L47.2562 17.7613C47.6325 17.8117 47.9871 17.9726 48.2788 18.2254C48.5704 18.4781 48.7873 18.8121 48.9035 19.1885C49.0201 19.5648 49.0312 19.968 48.9361 20.3508C48.8413 20.7336 48.6437 21.0803 48.3665 21.3504L39.0028 31.0373C38.7641 31.2701 38.5846 31.5616 38.4814 31.8851C38.3777 32.2086 38.3537 32.554 38.4107 32.8898L40.6683 46.513C40.7338 46.9047 40.6924 47.3073 40.5491 47.6754C40.4059 48.0436 40.1665 48.3624 39.8578 48.5959C39.5495 48.829 39.1842 48.9671 38.8041 48.9949C38.424 49.0223 38.0439 48.9382 37.7075 48.7514L26.0123 42.3064C25.7129 42.1531 25.3837 42.0736 25.0501 42.0736C24.7164 42.0736 24.3873 42.1531 24.0878 42.3064L12.3925 48.7514C12.0561 48.9382 11.6761 49.0223 11.296 48.9949C10.9159 48.9671 10.5508 48.829 10.2423 48.5959C9.93377 48.3624 9.69424 48.0436 9.55094 47.6754C9.40767 47.3073 9.36633 46.9047 9.43169 46.513L11.6893 32.7354C11.7465 32.3996 11.7223 32.0543 11.6189 31.7307C11.5155 31.4072 11.3361 31.1158 11.0972 30.8829L1.62252 21.3504C1.34222 21.0729 1.14509 20.7166 1.05502 20.3247C0.964951 19.9327 0.98581 19.5219 1.11506 19.1421C1.24432 18.7623 1.47642 18.4297 1.78326 18.1846C2.0901 17.9395 2.45851 17.7924 2.84385 17.7613L15.8345 15.7544C16.1624 15.7165 16.4751 15.5897 16.7413 15.3866C17.0076 15.1834 17.2181 14.9111 17.3519 14.5966L23.2366 2.20821C23.3968 1.8474 23.6527 1.54192 23.9741 1.32784C24.2954 1.11375 24.6687 1 25.0501 1C25.4314 1 25.8048 1.11375 26.1261 1.32784C26.4474 1.54192 26.7033 1.8474 26.8636 2.20821Z" fill="white" stroke="white" stroke-linecap="round" stroke-linejoin="round"/>
</svg>
