<svg width="780" height="49" viewBox="0 0 780 49" fill="none" xmlns="http://www.w3.org/2000/svg">
<g filter="url(#filter0_d_2065_4302)">
<path d="M0 -9.25043H779.17V0.832949H512.324C507.654 0.832949 503.16 2.61521 499.759 5.81597L461.65 41.6835C458.249 44.8842 453.755 46.6665 449.085 46.6665H0V-9.25043Z" fill="#D9D9D9" shape-rendering="crispEdges"/>
<path d="M0 -9.25043H779.17V0.832949H512.324C507.654 0.832949 503.16 2.61521 499.759 5.81597L461.65 41.6835C458.249 44.8842 453.755 46.6665 449.085 46.6665H0V-9.25043Z" fill="url(#paint0_linear_2065_4302)" shape-rendering="crispEdges"/>
<path d="M0 -9.25043H779.17V0.832949H512.324C507.654 0.832949 503.16 2.61521 499.759 5.81597L461.65 41.6835C458.249 44.8842 453.755 46.6665 449.085 46.6665H0V-9.25043Z" fill="#2C2F48" fill-opacity="0.5" shape-rendering="crispEdges"/>
</g>
<defs>
<filter id="filter0_d_2065_4302" x="0" y="-9.25043" width="779.17" height="57.7502" filterUnits="userSpaceOnUse" color-interpolation-filters="sRGB">
<feFlood flood-opacity="0" result="BackgroundImageFix"/>
<feColorMatrix in="SourceAlpha" type="matrix" values="0 0 0 0 0 0 0 0 0 0 0 0 0 0 0 0 0 0 127 0" result="hardAlpha"/>
<feOffset dy="1.83334"/>
<feComposite in2="hardAlpha" operator="out"/>
<feColorMatrix type="matrix" values="0 0 0 0 1 0 0 0 0 1 0 0 0 0 1 0 0 0 0.25 0"/>
<feBlend mode="normal" in2="BackgroundImageFix" result="effect1_dropShadow_2065_4302"/>
<feBlend mode="normal" in="SourceGraphic" in2="effect1_dropShadow_2065_4302" result="shape"/>
</filter>
<linearGradient id="paint0_linear_2065_4302" x1="75.3198" y1="-1.64573" x2="195.838" y2="284.606" gradientUnits="userSpaceOnUse">
<stop stop-color="#F44730"/>
<stop offset="1" stop-color="#F4A154"/>
</linearGradient>
</defs>
</svg>
