<svg width="50" height="50" viewBox="0 0 50 50" fill="none" xmlns="http://www.w3.org/2000/svg">
<path d="M4 8.89995C4 6.99457 5.54462 5.44995 7.45 5.44995H43.1C45.0054 5.44995 46.55 6.99457 46.55 8.89995V13.5H4V8.89995Z" fill="#D9D9D9"/>
<path d="M20.1001 3.11892C20.1001 2.50096 20.6011 2 21.219 2H30.4812C31.0991 2 31.6001 2.50096 31.6001 3.11892V4.3H20.1001V3.11892Z" fill="#D9D9D9"/>
<path fill-rule="evenodd" clip-rule="evenodd" d="M33.311 14.6499H26.425V39.0875C26.425 39.4051 26.1676 39.6625 25.85 39.6625C25.5324 39.6625 25.275 39.4051 25.275 39.0875V14.6499H18.389L19.5244 39.0608C19.5391 39.378 19.2939 39.6471 18.9767 39.6619C18.6595 39.6766 18.3904 39.4314 18.3756 39.1142L17.2377 14.6499H8.6001L12.0501 47.9999H38.5001L41.9501 14.6499H34.4623L33.3244 39.1142C33.3096 39.4314 33.0405 39.6766 32.7233 39.6619C32.4061 39.6471 32.1609 39.378 32.1756 39.0608L33.311 14.6499Z" fill="#D9D9D9"/>
</svg>
