<svg width="43" height="46" viewBox="0 0 43 46" fill="none" xmlns="http://www.w3.org/2000/svg">
<path d="M0 6.89995C0 4.99457 1.54462 3.44995 3.45 3.44995H39.1C41.0054 3.44995 42.55 4.99457 42.55 6.89995V11.5H0V6.89995Z" fill="#F5F5F5"/>
<path d="M16.1001 1.11892C16.1001 0.500957 16.6011 0 17.219 0H26.4812C27.0991 0 27.6001 0.500957 27.6001 1.11892V2.3H16.1001V1.11892Z" fill="#F5F5F5"/>
<path fill-rule="evenodd" clip-rule="evenodd" d="M29.311 12.6499H22.425V37.0875C22.425 37.4051 22.1676 37.6625 21.85 37.6625C21.5324 37.6625 21.275 37.4051 21.275 37.0875V12.6499H14.389L15.5244 37.0608C15.5391 37.378 15.2939 37.6471 14.9767 37.6619C14.6595 37.6766 14.3904 37.4314 14.3756 37.1142L13.2377 12.6499H4.6001L8.0501 45.9999H34.5001L37.9501 12.6499H30.4623L29.3244 37.1142C29.3096 37.4314 29.0405 37.6766 28.7233 37.6619C28.4061 37.6471 28.1609 37.378 28.1756 37.0608L29.311 12.6499Z" fill="#F5F5F5"/>
</svg>
