<svg width="51" height="31" viewBox="0 0 51 31" fill="none" xmlns="http://www.w3.org/2000/svg">
<path d="M1.45523 1.47364C3.39554 -0.491215 6.5414 -0.491215 8.48171 1.47364L25.4684 18.6753L42.4551 1.47371C44.3954 -0.491143 47.5413 -0.491144 49.4816 1.47371C51.4219 3.43857 51.4219 6.62424 49.4816 8.5891L29.2378 29.089C28.2023 30.1376 26.8235 30.6266 25.4677 30.556C24.1124 30.6262 22.7342 30.1372 21.699 29.089L1.45523 8.58903C-0.485077 6.62417 -0.485077 3.4385 1.45523 1.47364Z" fill="#D9D9D9"/>
<path d="M1.45523 1.47364C3.39554 -0.491215 6.5414 -0.491215 8.48171 1.47364L25.4684 18.6753L42.4551 1.47371C44.3954 -0.491143 47.5413 -0.491144 49.4816 1.47371C51.4219 3.43857 51.4219 6.62424 49.4816 8.5891L29.2378 29.089C28.2023 30.1376 26.8235 30.6266 25.4677 30.556C24.1124 30.6262 22.7342 30.1372 21.699 29.089L1.45523 8.58903C-0.485077 6.62417 -0.485077 3.4385 1.45523 1.47364Z" fill="url(#paint0_angular_267_1319)"/>
<defs>
<radialGradient id="paint0_angular_267_1319" cx="0" cy="0" r="1" gradientUnits="userSpaceOnUse" gradientTransform="translate(24.1088 -7.64066) rotate(-92.0135) scale(82.1135 15.7224)">
<stop offset="0.20571" stop-color="#69168F"/>
<stop offset="0.595055" stop-color="#0A2E72"/>
<stop offset="0.837609" stop-color="#144BB1"/>
</radialGradient>
</defs>
</svg>
