<svg width="50" height="50" viewBox="0 0 50 50" fill="none" xmlns="http://www.w3.org/2000/svg">
<g clip-path="url(#clip0_146_234)">
<path fill-rule="evenodd" clip-rule="evenodd" d="M39.9806 39.7168C36.1704 43.5948 30.8661 46 25 46C18.6465 46 12.9519 43.1785 9.10109 38.72C9.03432 39.3041 9 39.898 9 40.5C9 49.0604 15.9396 56 24.5 56C33.0604 56 40 49.0604 40 40.5C40 40.2373 39.9935 39.9762 39.9806 39.7168ZM9.42127 36.8956C10.6793 31.6131 14.6413 27.379 19.7637 25.737C16.9166 24.0963 15 21.022 15 17.5C15 12.2533 19.2533 8 24.5 8C29.7467 8 34 12.2533 34 17.5C34 21.022 32.0834 24.0963 29.2363 25.737C34.6715 27.4793 38.8003 32.1399 39.7786 37.8748C36.1855 41.9958 30.8968 44.6 24.9999 44.6C18.6486 44.6 13.0029 41.579 9.42127 36.8956Z" fill="#D9D9D9"/>
<path fill-rule="evenodd" clip-rule="evenodd" d="M25 47.5C37.4264 47.5 47.5 37.4264 47.5 25C47.5 12.5736 37.4264 2.5 25 2.5C12.5736 2.5 2.5 12.5736 2.5 25C2.5 37.4264 12.5736 47.5 25 47.5ZM25 46C36.598 46 46 36.598 46 25C46 13.402 36.598 4 25 4C13.402 4 4 13.402 4 25C4 36.598 13.402 46 25 46Z" fill="#D9D9D9"/>
</g>
<defs>
<clipPath id="clip0_146_234">
<rect x="2.5" y="2.5" width="45" height="45" rx="22.5" fill="white"/>
</clipPath>
</defs>
</svg>
